PathFileType	4	(X/Y/Z)	C:\Users\Biomechanik\SynologyDrive\AlexP\Athlete_03\Athlete_3_25_03_31\Squat_bar_02\marker_experimental.trc
DataRate	CameraRate	NumFrames	NumMarkers	Units	OrigDataRate	OrigDataStartFrame	OrigNumFrames
200.000000	200.000000	4	55	mm	200.000000	326	522
Frame#	Time	BL			BR			GLAB			RFHD			LFHD			C7			T6			SPINMOL			SPINM2			SPINM3			T12			BELTOL			BELT2			BELT3			SACROL			SACR2			SACR3			LTHOL			LTH2			LTH3			LSHAOL			LSHA2			LSHA3			LHEE			LTOE			LM5			RTHOL			RTH2			RTH3			RSHAOL			RSHA2			RSHA3			RHEE			RTOE			RM5			STRN			XIPH			LACR			LUAOL			LUA2			LUA3			LLAOL			LLA2			LLA3			LWRR			LWRU			RACR			RUAOL			RUA2			RUA3			RLAOL			RLA2			RLA3			RWRR			RWRU			
		X1	Y1	Z1	X2	Y2	Z2	X3	Y3	Z3	X4	Y4	Z4	X5	Y5	Z5	X6	Y6	Z6	X7	Y7	Z7	X8	Y8	Z8	X9	Y9	Z9	X10	Y10	Z10	X11	Y11	Z11	X12	Y12	Z12	X13	Y13	Z13	X14	Y14	Z14	X15	Y15	Z15	X16	Y16	Z16	X17	Y17	Z17	X18	Y18	Z18	X19	Y19	Z19	X20	Y20	Z20	X21	Y21	Z21	X22	Y22	Z22	X23	Y23	Z23	X24	Y24	Z24	X25	Y25	Z25	X26	Y26	Z26	X27	Y27	Z27	X28	Y28	Z28	X29	Y29	Z29	X30	Y30	Z30	X31	Y31	Z31	X32	Y32	Z32	X33	Y33	Z33	X34	Y34	Z34	X35	Y35	Z35	X36	Y36	Z36	X37	Y37	Z37	X38	Y38	Z38	X39	Y39	Z39	X40	Y40	Z40	X41	Y41	Z41	X42	Y42	Z42	X43	Y43	Z43	X44	Y44	Z44	X45	Y45	Z45	X46	Y46	Z46	X47	Y47	Z47	X48	Y48	Z48	X49	Y49	Z49	X50	Y50	Z50	X51	Y51	Z51	X52	Y52	Z52	X53	Y53	Z53	X54	Y54	Z54	X55	Y55	Z55	

327	1.63	252.9209442138672	819.2000122070314	-2244.265380859375	253.9812469482422	837.0841064453125	-223.2140502929687	542.721923828125	995.7828979492189	-1192.401489257812	489.9354248046875	1019.416076660156	-1130.398193359375	501.3266296386719	1019.870788574219	-1266.630859375	305.6213073730469	887.0253295898439	-1203.76171875	180.3896942138672	780.6672973632814	-1213.851318359375	160.5796203613281	760.6157836914064	-1234.785400390625	150.9004974365234	754.3685913085939	-1185.911499023438	118.8053665161133	710.3068237304689	-1223.456298828125	91.52922058105469	668.4489135742189	-1223.671264648438	56.34220886230469	662.1312866210939	-1239.240600585938	54.26689529418945	658.4330444335939	-1188.78271484375	16.6162223815918	612.6486206054689	-1219.978271484375	-51.59271240234375	493.4674072265626	-1245.946655273438	-51.33870697021484	491.3966064453126	-1194.515869140625	-61.4539794921875	432.1366882324219	-1222.061157226562	154.1517944335938	380.886444091797	-1512.740844726562	203.2033538818359	324.5207824707032	-1539.436279296875	206.4218902587891	374.6157226562501	-1544.486694335938	248.783203125	290.2782592773439	-1617.016723632812	187.0211944580078	253.9290618896485	-1582.00732421875	228.9288787841797	233.8875122070313	-1601.40283203125	113.7873306274414	71.49002075195321	-1464.534301757812	317.2065734863281	49.05873489379892	-1536.558959960938	239.3427276611328	26.00460624694834	-1619.30322265625	131.2177886962891	368.4379272460938	-920.54345703125	172.9316101074219	426.2263793945313	-883.7546997070312	182.0077056884766	377.3251647949219	-885.1652221679688	221.7332153320312	306.5640869140626	-807.2366333007812	221.2858123779297	227.6727294921876	-807.2400512695312	190.2439727783203	258.4823608398438	-831.3801879882812	94.77930450439453	66.10782623291021	-968.8856201171875	281.8005676269531	46.13218307495123	-873.1053466796875	192.6229095458984	39.11742019653325	-800.3045654296875	415.357421875	721.6867675781251	-1211.147216796875	367.5766906738281	582.0389404296876	-1208.140625	347.4207458496094	835.1458740234376	-1378.236694335938	221.4241485595703	736.5316162109376	-1472.284545898438	166.0895538330078	702.3920898437501	-1461.833618164062	195.0853271484375	683.5864257812501	-1499.633178710938	160.5315856933594	618.4875488281251	-1568.55419921875	232.5650634765625	605.3640136718751	-1599.685913085938	209.1138610839844	649.0803222656251	-1591.911865234375	275.0879211425781	722.9844970703126	-1627.0380859375	286.5987548828125	749.6886596679689	-1553.466674804688	355.8974914550781	823.9685668945314	-1043.892822265625	232.0991821289062	727.4721679687501	-956.9978637695312	199.7496337890625	677.3150024414064	-928.3346557617188	179.5875549316406	691.8297119140626	-974.552490234375	188.7957458496094	607.8773193359375	-846.2300415039062	198.2613067626953	686.5143432617188	-834.944580078125	231.3941345214844	648.5003662109375	-826.4126586914062	272.6722106933594	731.9202880859375	-808.9031982421875	296.0487365722656	761.65185546875	-879.5704345703125	
328	1.635	253.1370849609375	822.7179565429689	-2244.13525390625	253.9606170654297	840.4163208007812	-223.0791625976562	542.891845703125	999.1127929687501	-1192.370483398438	490.1379699707031	1022.785949707031	-1130.358276367188	501.4914855957031	1023.224243164063	-1266.586181640625	305.722900390625	890.4370117187501	-1203.6572265625	180.4925689697266	783.9427490234376	-1213.758178710938	160.7069091796875	763.8786010742189	-1234.661010742188	151.0226898193359	757.6419067382814	-1185.783935546875	118.9418640136719	713.5571899414064	-1223.321166992188	91.704833984375	671.6231079101564	-1223.500610351562	56.50920867919922	665.3694458007814	-1239.057861328125	54.42018127441406	661.6730346679689	-1188.596923828125	16.67877197265625	615.9766845703126	-1219.785034179688	-51.89596557617188	497.7517089843751	-1245.692260742188	-51.64820861816406	495.6624755859376	-1194.253051757812	-62.04409790039062	436.4694824218751	-1221.827514648438	153.3110961914062	383.2137145996095	-1512.595092773438	202.0145874023438	326.3009643554689	-1538.9453125	205.6017913818359	376.3655090332032	-1544.227172851562	248.18212890625	290.6071166992189	-1616.79052734375	186.4680328369141	254.0490264892579	-1581.873413085938	228.4832611083984	234.1391143798829	-1601.212280273438	113.7076263427734	71.47280883789071	-1464.625366210938	317.1383056640625	49.09952926635751	-1536.652099609375	239.3189239501953	25.9525089263917	-1619.352905273438	130.5537109375	370.7291564941407	-920.552490234375	172.8054046630859	427.9657897949219	-883.5387573242188	181.5101776123047	379.0119934082032	-885.2619018554688	221.4234771728516	306.7798156738282	-807.4276123046875	221.0394744873047	227.8901062011719	-807.3612670898438	189.9236755371094	258.6514282226563	-831.4611206054688	94.67189025878906	66.08532714843756	-968.7777709960938	281.7720031738281	46.17483520507818	-873.021240234375	192.5689239501953	39.06447601318364	-800.23583984375	415.3256225585938	725.0568847656251	-1211.036743164062	367.4922485351562	585.4035034179689	-1208.085815429688	347.5009460449219	838.5405883789064	-1378.14111328125	221.4554290771484	739.9522094726564	-1472.1474609375	166.1308898925781	705.8093872070314	-1461.671020507812	195.1089630126953	687.0128173828126	-1499.500122070312	160.556396484375	621.9367675781251	-1568.439086914062	232.5916748046875	608.7946777343751	-1599.568481445312	209.1325988769531	652.5172119140626	-1591.779174804688	275.1263427734375	726.4126586914064	-1626.912231445312	286.6569519042969	753.1018676757814	-1553.326293945312	355.9657592773438	827.3190917968751	-1043.771240234375	232.0792541503906	730.8732910156251	-956.93359375	199.6985168457031	680.734375	-928.261474609375	179.5668487548828	695.2334594726564	-974.4915771484375	188.7513427734375	611.264892578125	-846.150390625	198.2294311523438	689.8916625976562	-834.849365234375	231.3634338378906	651.8763427734375	-826.3284301757812	272.6594543457031	735.278076171875	-808.7991943359375	296.0563354492188	765.0150756835938	-879.4600219726562	
329	1.64	253.3472595214844	826.3249511718751	-2244	253.9344024658203	843.8727416992188	-222.939468383789	543.0526123046875	1002.556457519531	-1192.337646484375	490.332275390625	1026.270629882812	-1130.316772460938	501.6461181640625	1026.688842773438	-1266.538330078125	305.8182373046875	893.9572753906251	-1203.5458984375	180.5904235839844	787.3214111328126	-1213.662963867188	160.8268585205078	767.2418212890626	-1234.534912109375	151.1366271972656	761.0174560546876	-1185.656494140625	119.076545715332	716.9036865234376	-1223.183471679688	91.86524963378906	674.8832397460939	-1223.328857421875	56.66067504882812	668.6913452148439	-1238.87646484375	54.55846786499023	664.9996337890626	-1188.41015625	16.7250919342041	619.3889770507814	-1219.595825195312	-52.17364501953125	502.1391601562501	-1245.4345703125	-51.93474960327148	500.0325927734376	-1193.987915039062	-62.6069450378418	440.9045410156251	-1221.59033203125	152.4842071533203	385.5941772460939	-1512.435791015625	200.8175659179688	328.1322631835939	-1538.444580078125	204.7864074707031	378.1595153808595	-1543.955688476562	247.5856170654297	290.9377441406251	-1616.555786132812	185.9201354980469	254.1731567382813	-1581.73046875	228.0415954589844	234.3943634033204	-1601.014770507812	113.6295852661133	71.45619201660165	-1464.716064453125	317.0709838867188	49.13856887817392	-1536.744262695312	239.2957000732422	25.90135192871104	-1619.40234375	129.8959045410156	373.0867309570313	-920.5584106445312	172.6917877197266	429.7547912597657	-883.31689453125	181.0141143798828	380.7512207031251	-885.35546875	221.1065368652344	307.0063171386719	-807.6323852539062	220.78662109375	228.1179962158204	-807.4873657226562	189.6005096435547	258.8280639648438	-831.5547485351562	94.56922149658203	66.06310272216803	-968.6720581054688	281.7427368164062	46.21606445312506	-872.9367065429688	192.5166625976562	39.01224517822271	-800.1683349609375	415.2944030761719	728.5401611328126	-1210.916137695312	367.4116516113281	588.8823852539064	-1208.021362304688	347.5761413574219	842.0436401367189	-1378.037353515625	221.4868927001953	743.4766235351564	-1472.004150390625	166.1727142333984	709.3272094726564	-1461.50341796875	195.1343841552734	690.5426635742189	-1499.360961914062	160.5859985351562	625.4858398437501	-1568.319091796875	232.6268615722656	612.3272094726564	-1599.44482421875	209.1510772705078	656.0543212890626	-1591.638305664062	275.1665954589844	729.9447021484376	-1626.78076171875	286.7152099609375	756.6204223632814	-1553.180053710938	356.0247802734375	830.7756347656251	-1043.638549804688	232.0525054931641	734.3835449218751	-956.8595581054688	199.6410980224609	684.2625732421875	-928.1798095703125	179.5384216308594	698.7456665039064	-974.421630859375	188.7029876708984	614.7623901367188	-846.058349609375	198.1904907226562	693.3804931640625	-834.7437744140625	231.3275756835938	655.364501953125	-826.2337646484375	272.6409301757812	738.7490234375	-808.687255859375	296.058837890625	768.4895629882812	-879.3424072265625	
330	1.645	253.5505065917969	830.0192260742189	-2243.860107421875	253.9011535644531	847.4517822265625	-222.7954101562499	543.2024536132812	1006.113220214844	-1192.301879882812	490.5166931152344	1029.868530273438	-1130.27294921875	501.789306640625	1030.263671875	-1266.486206054688	305.9064331054688	897.5840454101564	-1203.427734375	180.6832275390625	790.8021850585939	-1213.565551757812	160.9397277832031	770.7044677734376	-1234.4072265625	151.2424621582031	764.4941406250001	-1185.529541015625	119.2095260620117	720.3455810546876	-1223.044067382812	92.01063537597656	678.2284545898439	-1223.157104492188	56.79679489135742	672.0956420898439	-1238.697143554688	54.68191146850586	668.4123535156251	-1188.223876953125	16.75683403015137	622.8848876953126	-1219.410400390625	-52.42325210571289	506.6246337890626	-1245.174194335938	-52.19646835327148	504.5015563964844	-1193.72119140625	-63.1404914855957	445.4365844726563	-1221.350219726562	151.6727905273438	388.0260314941407	-1512.26318359375	199.6146392822266	330.0135803222657	-1537.93505859375	203.9774627685547	379.9965209960939	-1543.672729492188	246.9947357177734	291.269744873047	-1616.312744140625	185.3793792724609	254.301239013672	-1581.578491210938	227.6046752929688	234.6529388427735	-1600.810791015625	113.5532150268555	71.44002532958993	-1464.806274414062	317.0048217773438	49.17556762695322	-1536.8349609375	239.2733001708984	25.85100936889658	-1619.451538085938	129.2467193603516	375.5077819824219	-920.5611572265625	172.5910186767578	431.5910644531251	-883.088623046875	180.5207366943359	382.5408630371094	-885.4458618164062	220.7815551757812	307.2437133789063	-807.8500366210938	220.526611328125	228.3566131591797	-807.6177368164062	189.2738952636719	259.0124511718751	-831.6607666015625	94.47095489501953	66.04194641113287	-968.568603515625	281.7129516601562	46.25575637817388	-872.85107421875	192.4661407470703	38.9608764648438	-800.1019897460938	415.2639770507812	732.1346435546876	-1210.785400390625	367.336181640625	592.4739990234376	-1207.947387695312	347.6461791992188	845.6536254882814	-1377.925170898438	221.5184326171875	747.1038208007814	-1471.854370117188	166.2144165039062	712.9448852539064	-1461.331298828125	195.16064453125	694.1751708984376	-1499.215454101562	160.6194458007812	629.1336059570314	-1568.193481445312	232.6689758300781	615.9602661132814	-1599.314331054688	209.1699066162109	659.6904907226564	-1591.489868164062	275.2085571289062	733.5785522460939	-1626.643432617188	286.7730712890625	760.2426147460939	-1553.0283203125	356.0735168457031	834.3378906250001	-1043.49462890625	232.0184936523438	738.0015869140626	-956.7765502929688	199.5768890380859	687.8983764648438	-928.09033203125	179.5021209716797	702.3654174804689	-974.3436889648438	188.6497802734375	618.3685302734375	-845.9552001953125	198.1436309814453	696.9795532226562	-834.6289672851562	231.2852935791016	658.96337890625	-826.1296997070312	272.6155700683594	742.3314819335938	-808.5679931640625	296.0560913085938	772.0734252929688	-879.2181396484375	
